FFmpeg version SVN-r25716, Copyright (c) 2000-2010 the FFmpeg developers  built on Nov 10 2010 12:23:18 with gcc 4.1.2 20080704 (Red Hat 4.1.2-48)  configuration: --enable-libmp3lame --enable-shared --disable-mmx --arch=x86_64  libavutil     50.33. 0 / 50.33. 0  libavcore      0.12. 1 /  0.12. 1  libavcodec    52.94. 4 / 52.94. 4  libavformat   52.84. 0 / 52.84. 0  libavdevice   52. 2. 2 / 52. 2. 2  libavfilter    1.59. 0 /  1.59. 0  libswscale     0.12. 0 /  0.12. 0Seems stream 0 codec frame rate differs from container frame rate: 5994.00 (5994/1) -> 29.97 (2997/100)Input #0, mov,mp4,m4a,3gp,3g2,mj2, from '/RAID10/data/converted_video_files/25610.mov':  Metadata:    major_brand     : qt      minor_version   : 537199360    compatible_brands: qt    Duration: 00:00:33.33, start: 0.000000, bitrate: 1741 kb/s    Stream #0.0(eng): Video: h264, yuv420p, 720x480, 1737 kb/s, 29.97 fps, 29.97 tbr, 2997 tbn, 5994 tbc[buffer @ 0x2d44350] w:720 h:480 pixfmt:yuv420pOutput #0, flv, to '/RAID10/data/converted_video_files/25610.flv':  Metadata:    encoder         : Lavf52.84.0    Stream #0.0(eng): Video: flv, yuv420p, 720x480, q=2-31, 600 kb/s, 1k tbn, 24 tbcStream mapping:  Stream #0.0 -> #0.0Press [q] to stop encodingframe=   41 fps=  0 q=2.0 size=     155kB time=1.71 bitrate= 742.1kbits/s dup=0 drop=10    frame=   85 fps= 81 q=1.6 size=     302kB time=3.54 bitrate= 697.5kbits/s dup=0 drop=21    frame=  124 fps= 80 q=2.0 size=     421kB time=5.17 bitrate= 667.6kbits/s dup=0 drop=30    frame=  174 fps= 85 q=2.0 size=     577kB time=7.25 bitrate= 652.3kbits/s dup=0 drop=43    frame=  222 fps= 87 q=2.0 size=     749kB time=9.25 bitrate= 663.0kbits/s dup=0 drop=55    frame=  264 fps= 86 q=2.0 size=     890kB time=11.00 bitrate= 662.9kbits/s dup=0 drop=65    frame=  299 fps= 83 q=2.0 size=    1031kB time=12.46 bitrate= 678.0kbits/s dup=0 drop=74    frame=  332 fps= 81 q=2.0 size=    1162kB time=13.83 bitrate= 688.1kbits/s dup=0 drop=82    frame=  343 fps= 75 q=2.0 size=    1200kB time=14.29 bitrate= 687.7kbits/s dup=0 drop=85    frame=  378 fps= 74 q=2.0 size=    1339kB time=15.75 bitrate= 696.4kbits/s dup=0 drop=94    frame=  432 fps= 77 q=2.0 size=    1520kB time=18.00 bitrate= 691.9kbits/s dup=0 drop=107    frame=  482 fps= 79 q=2.0 size=    1738kB time=20.08 bitrate= 708.8kbits/s dup=0 drop=119    frame=  509 fps= 77 q=2.0 size=    1830kB time=21.21 bitrate= 706.9kbits/s dup=0 drop=126    frame=  533 fps= 75 q=2.2 size=    1922kB time=22.21 bitrate= 708.9kbits/s dup=0 drop=132    frame=  539 fps= 71 q=2.3 size=    1934kB time=22.46 bitrate= 705.6kbits/s dup=0 drop=134    frame=  559 fps= 69 q=2.0 size=    2011kB time=23.29 bitrate= 707.3kbits/s dup=0 drop=139    frame=  576 fps= 67 q=2.0 size=    2066kB time=24.00 bitrate= 705.3kbits/s dup=0 drop=143    frame=  592 fps= 63 q=2.0 size=    2140kB time=24.67 bitrate= 710.7kbits/s dup=0 drop=147    frame=  600 fps= 22 q=2.0 size=    2152kB time=25.00 bitrate= 705.2kbits/s dup=0 drop=149    frame=  601 fps= 20 q=1.6 size=    2176kB time=25.04 bitrate= 711.9kbits/s dup=0 drop=149    frame=  603 fps= 20 q=2.8 size=    2188kB time=25.12 bitrate= 713.5kbits/s dup=0 drop=149    frame=  610 fps= 20 q=2.0 size=    2202kB time=25.42 bitrate= 709.8kbits/s dup=0 drop=151    frame=  623 fps= 20 q=3.1 size=    2234kB time=25.96 bitrate= 704.9kbits/s dup=0 drop=155    frame=  631 fps= 20 q=2.2 size=    2270kB time=26.29 bitrate= 707.3kbits/s dup=0 drop=156    frame=  643 fps= 20 q=3.3 size=    2307kB time=26.79 bitrate= 705.2kbits/s dup=0 drop=160    frame=  653 fps= 20 q=3.0 size=    2348kB time=27.21 bitrate= 707.0kbits/s dup=0 drop=162    frame=  678 fps= 20 q=2.2 size=    2418kB time=28.25 bitrate= 701.2kbits/s dup=0 drop=168    frame=  679 fps= 20 q=3.5 size=    2418kB time=28.29 bitrate= 700.2kbits/s dup=0 drop=168    frame=  690 fps= 20 q=3.7 size=    2455kB time=28.75 bitrate= 699.4kbits/s dup=0 drop=171    frame=  699 fps= 20 q=3.3 size=    2477kB time=29.12 bitrate= 696.8kbits/s dup=0 drop=173    frame=  702 fps= 19 q=2.2 size=    2486kB time=29.25 bitrate= 696.1kbits/s dup=0 drop=174    frame=  709 fps= 19 q=2.4 size=    2519kB time=29.54 bitrate= 698.5kbits/s dup=0 drop=176    frame=  730 fps= 20 q=2.0 size=    2585kB time=30.42 bitrate= 696.2kbits/s dup=0 drop=181    frame=  731 fps= 18 q=3.1 size=    2585kB time=30.46 bitrate= 695.3kbits/s dup=0 drop=181    frame=  744 fps= 18 q=3.4 size=    2617kB time=31.00 bitrate= 691.6kbits/s dup=0 drop=185    frame=  757 fps= 18 q=1.8 size=    2667kB time=31.54 bitrate= 692.7kbits/s dup=0 drop=188    frame=  762 fps= 18 q=2.0 size=    2682kB time=31.75 bitrate= 691.9kbits/s dup=0 drop=189    frame=  776 fps= 18 q=2.0 size=    2724kB time=32.33 bitrate= 690.2kbits/s dup=0 drop=193    frame=  787 fps= 18 q=4.1 size=    2761kB time=32.79 bitrate= 689.7kbits/s dup=0 drop=195    frame=  800 fps= 17 q=3.6 Lsize=    2792kB time=33.33 bitrate= 686.3kbits/s dup=0 drop=199    video:2780kB audio:0kB global headers:0kB muxing overhead 0.457068%